<?xml version="1.0" encoding="utf-8"?>
<!-- Generator: Adobe Illustrator 23.0.3, SVG Export Plug-In . SVG Version: 6.00 Build 0)  -->
<svg version="1.1" id="Layer_1" xmlns="http://www.w3.org/2000/svg" xmlns:xlink="http://www.w3.org/1999/xlink" x="0px" y="0px"
	 viewBox="0 0 4324 84" style="enable-background:new 0 0 4324 84;" xml:space="preserve">
<style type="text/css">
	.st0{fill-rule:evenodd;clip-rule:evenodd;fill:#191919;}
</style>
<path class="st0" d="M4324,84.2c0,0-226.5-71.5-395-76c-31.5,0-384.5,5.5-492.5-1.5C3335.9,0.2,3106.3-2.5,2948,42
	c-53,12-82,14-123,3C2667.2-0.8,2430.1,0.1,2328.5,6.7c-108,7-461,1.5-492.5,1.5c-134.2,3.6-260,37.2-324,55.8c-63,16-115,7-151-3
	c-64.2-18.6-179.9-49.2-314-52.8c-31.5,0-384.5,5.5-492.5-1.5S152,7.7,0,61.7V0h1441h1h1440h1h1441L4324,84.2z"/>
</svg>
