<?xml version="1.0" encoding="utf-8"?>
<!-- Generator: Adobe Illustrator 23.0.3, SVG Export Plug-In . SVG Version: 6.00 Build 0)  -->
<svg version="1.1" id="Layer_1" xmlns="http://www.w3.org/2000/svg" xmlns:xlink="http://www.w3.org/1999/xlink" x="0px" y="0px"
	 viewBox="0 0 120 120" style="enable-background:new 0 0 120 120;" xml:space="preserve">
<style type="text/css">
	.st0{fill-rule:evenodd;clip-rule:evenodd;fill:#E5E5E5;}
</style>
<g>
	<g>
		<path class="st0" d="M3.5,0.5c-1.7,0-3,1.3-3,3c0,1.7,1.3,3,3,3s3-1.3,3-3C6.5,1.8,5.2,0.5,3.5,0.5z M41.5,0.5c-1.7,0-3,1.3-3,3
			c0,1.7,1.3,3,3,3s3-1.3,3-3C44.5,1.8,43.2,0.5,41.5,0.5z M78.5,0.5c-1.7,0-3,1.3-3,3c0,1.7,1.3,3,3,3s3-1.3,3-3
			C81.5,1.8,80.2,0.5,78.5,0.5z M116.5,6.5c1.7,0,3-1.3,3-3c0-1.7-1.3-3-3-3s-3,1.3-3,3C113.5,5.2,114.8,6.5,116.5,6.5z M3.5,38.5
			c-1.7,0-3,1.3-3,3c0,1.7,1.3,3,3,3s3-1.3,3-3C6.5,39.8,5.2,38.5,3.5,38.5z M41.5,38.5c-1.7,0-3,1.3-3,3c0,1.7,1.3,3,3,3s3-1.3,3-3
			C44.5,39.8,43.2,38.5,41.5,38.5z M78.5,38.5c-1.7,0-3,1.3-3,3c0,1.7,1.3,3,3,3s3-1.3,3-3C81.5,39.8,80.2,38.5,78.5,38.5z
			 M116.5,38.5c-1.7,0-3,1.3-3,3c0,1.7,1.3,3,3,3s3-1.3,3-3C119.5,39.8,118.2,38.5,116.5,38.5z M3.5,75.5c-1.7,0-3,1.3-3,3
			c0,1.7,1.3,3,3,3s3-1.3,3-3C6.5,76.8,5.2,75.5,3.5,75.5z M41.5,75.5c-1.7,0-3,1.3-3,3c0,1.7,1.3,3,3,3s3-1.3,3-3
			C44.5,76.8,43.2,75.5,41.5,75.5z M78.5,75.5c-1.7,0-3,1.3-3,3c0,1.7,1.3,3,3,3s3-1.3,3-3C81.5,76.8,80.2,75.5,78.5,75.5z
			 M116.5,75.5c-1.7,0-3,1.3-3,3c0,1.7,1.3,3,3,3s3-1.3,3-3C119.5,76.8,118.2,75.5,116.5,75.5z M3.5,113.5c-1.7,0-3,1.3-3,3
			c0,1.7,1.3,3,3,3s3-1.3,3-3C6.5,114.8,5.2,113.5,3.5,113.5z M41.5,113.5c-1.7,0-3,1.3-3,3c0,1.7,1.3,3,3,3s3-1.3,3-3
			C44.5,114.8,43.2,113.5,41.5,113.5z M78.5,113.5c-1.7,0-3,1.3-3,3c0,1.7,1.3,3,3,3s3-1.3,3-3C81.5,114.8,80.2,113.5,78.5,113.5z
			 M116.5,113.5c-1.7,0-3,1.3-3,3c0,1.7,1.3,3,3,3s3-1.3,3-3C119.5,114.8,118.2,113.5,116.5,113.5z"/>
	</g>
</g>
</svg>
