<?xml version="1.0" encoding="utf-8"?>
<!-- Generator: Adobe Illustrator 23.0.3, SVG Export Plug-In . SVG Version: 6.00 Build 0)  -->
<svg version="1.1" id="Layer_1" xmlns="http://www.w3.org/2000/svg" xmlns:xlink="http://www.w3.org/1999/xlink" x="0px" y="0px"
	 viewBox="0 0 4326 163" style="enable-background:new 0 0 4326 163;" xml:space="preserve">
<style type="text/css">
	.st0{fill-rule:evenodd;clip-rule:evenodd;fill:#AD4444;}
</style>
<path class="st0" d="M2884,162.9L2884,162.9H1442H0.1v-2.4c176-121,311.9-118.5,376.4-93.5C508,115.4,623,99.4,689,62.4
	c177.5-98,272-61.5,390-18.5c139.3,50.2,265.6,55.9,325.9,55.1c22.9-0.3,50.9-0.2,77.3,0c61.4,0.6,185.9-5.7,322.9-55.2
	c118-43,212.5-79.5,390,18.5c66,37,181,53,312.5,4.5c58.2-22.5,174.4-26.8,325.7,61.3c33,18.6,85.6,9.8,110.9-5.4
	c146.7-82.5,259.3-77.9,316.2-55.9c131.5,48.5,246.5,32.5,312.5-4.5c177.5-98,272-61.5,390-18.5c194,70,363,53.5,363,53.5v65.4H2884
	z"/>
</svg>
